<?xml version="1.0" standalone="no"?>
<!DOCTYPE svg PUBLIC "-//W3C//DTD SVG 20010904//EN"
 "http://www.w3.org/TR/2001/REC-SVG-20010904/DTD/svg10.dtd">
<svg version="1.0" xmlns="http://www.w3.org/2000/svg"
 width="1200.000000pt" height="1200.000000pt" viewBox="0 0 1200.000000 1200.000000"
 preserveAspectRatio="xMidYMid meet">
<metadata>
Created by potrace 1.14, written by Peter Selinger 2001-2017
</metadata>
<g transform="translate(0.000000,1200.000000) scale(0.100000,-0.100000)"
fill="#000000" stroke="none">
<path d="M5532 11978 c2 -8 -6 -13 -19 -12 -13 0 -23 -2 -23 -6 0 -4 -7 -7
-15 -7 -8 0 -15 4 -15 8 0 8 -46 2 -62 -7 -4 -3 -8 -1 -8 4 0 6 -14 7 -35 2
-20 -5 -33 -4 -29 1 8 13 -7 11 -38 -5 -18 -9 -30 -11 -34 -5 -3 6 -12 8 -19
5 -7 -2 -17 0 -23 6 -7 7 -20 4 -41 -11 -17 -13 -31 -17 -31 -11 0 6 -12 3
-28 -9 -18 -13 -33 -17 -42 -11 -9 5 -19 5 -26 -1 -8 -7 -14 -6 -19 1 -5 8
-11 8 -21 -1 -11 -9 -14 -8 -14 2 -1 11 -3 11 -13 -1 -7 -9 -21 -15 -32 -15
-11 0 -33 -5 -48 -13 -15 -7 -32 -10 -37 -7 -6 3 -10 1 -10 -6 0 -10 -3 -10
-11 -2 -7 7 -21 8 -39 3 -20 -6 -30 -4 -34 3 -3 8 -8 7 -15 -3 -6 -8 -11 -11
-11 -6 0 5 -9 1 -20 -9 -11 -10 -20 -15 -20 -11 0 4 -10 1 -22 -6 -29 -15 -58
-18 -58 -5 0 5 -6 4 -14 -2 -11 -9 -15 -9 -18 0 -3 8 -9 7 -20 -5 -19 -18 -33
-22 -23 -5 4 6 -2 5 -13 -2 -12 -7 -18 -17 -15 -23 4 -5 -3 -7 -15 -4 -13 4
-22 1 -22 -5 0 -8 -3 -8 -8 -2 -8 11 -37 13 -47 3 -4 -4 -13 -4 -21 -1 -8 3
-14 0 -14 -6 0 -6 -3 -10 -7 -9 -12 2 -47 -14 -56 -26 -6 -8 -10 -7 -14 1 -3
10 -10 10 -26 1 -12 -6 -25 -16 -29 -22 -5 -8 -8 -7 -8 2 0 6 -4 12 -10 12 -5
0 -10 -7 -10 -16 0 -10 -6 -14 -15 -10 -8 3 -15 0 -15 -6 0 -7 -4 -7 -14 1
-11 9 -16 9 -22 0 -5 -8 -3 -10 7 -5 8 4 5 0 -6 -9 -13 -10 -21 -12 -23 -5 -2
6 -11 2 -19 -9 -8 -12 -18 -19 -23 -16 -5 3 -30 -5 -56 -19 -25 -13 -52 -22
-59 -20 -7 3 -15 -2 -19 -11 -3 -9 -10 -13 -16 -10 -12 7 -62 -29 -53 -38 3
-4 -4 -5 -15 -2 -12 2 -23 -3 -26 -11 -3 -9 -10 -13 -15 -9 -6 3 -14 -3 -20
-12 -6 -10 -11 -12 -11 -5 0 19 -18 14 -25 -8 -7 -21 -22 -22 -43 -2 -12 11
-12 15 3 26 14 10 15 15 5 21 -9 5 -11 4 -6 -3 6 -10 -6 -17 -18 -9 -3 1 -17
-9 -32 -23 -15 -14 -24 -20 -20 -13 5 9 0 10 -24 2 -16 -6 -30 -15 -30 -21 0
-5 -4 -6 -10 -3 -5 3 -10 0 -11 -7 0 -7 -4 -4 -9 7 -7 16 -9 17 -9 3 -1 -11
-8 -16 -20 -13 -14 3 -18 -1 -14 -11 3 -9 -2 -14 -16 -14 -12 0 -21 -5 -21
-10 0 -6 -6 -10 -12 -8 -16 3 -78 -24 -78 -34 0 -5 -9 -8 -20 -8 -11 0 -20 -4
-20 -10 0 -5 -7 -6 -17 -3 -11 4 -14 3 -9 -5 6 -11 -6 -17 -19 -9 -2 1 -10 -7
-18 -17 -9 -12 -19 -16 -27 -11 -9 5 -11 4 -6 -3 7 -11 3 -14 -26 -16 -7 -1
-19 -7 -26 -14 -8 -7 -18 -9 -24 -6 -7 4 -8 2 -4 -4 4 -7 2 -13 -3 -13 -6 -1
-15 -3 -21 -4 -5 -1 -15 -3 -21 -4 -5 0 -7 -6 -3 -13 4 -6 3 -8 -4 -4 -6 3
-16 1 -24 -6 -13 -12 -26 -17 -55 -22 -7 -1 -20 -11 -29 -22 -13 -16 -15 -17
-10 -1 5 15 1 14 -27 -5 -17 -13 -34 -26 -35 -31 -2 -4 -8 -5 -13 -1 -5 3 -9
0 -9 -5 0 -6 -7 -11 -15 -11 -8 0 -15 -7 -15 -15 0 -8 -9 -15 -19 -15 -10 0
-22 -7 -25 -16 -4 -9 -13 -14 -21 -10 -9 3 -15 0 -15 -9 0 -8 -6 -15 -13 -15
-26 0 -77 -31 -77 -47 0 -9 -6 -13 -15 -9 -14 5 -20 -6 -15 -29 1 -5 -2 -7 -6
-3 -3 4 -18 -1 -32 -12 -13 -11 -28 -17 -33 -14 -5 3 -9 -4 -9 -16 0 -12 -4
-19 -9 -16 -5 3 -14 -1 -21 -9 -7 -8 -16 -13 -20 -10 -4 3 -11 -7 -14 -20 -4
-14 -11 -23 -17 -19 -5 3 -18 -3 -28 -15 -10 -11 -21 -18 -25 -14 -3 3 -6 -2
-6 -11 0 -12 -5 -16 -16 -12 -8 3 -12 2 -9 -4 6 -9 -8 -14 -27 -11 -5 0 -8 -5
-8 -13 0 -8 -13 -20 -29 -27 -16 -7 -27 -17 -25 -21 3 -4 -5 -8 -17 -8 -12 0
-20 -3 -16 -6 3 -3 -14 -24 -38 -46 -25 -23 -42 -45 -39 -50 3 -4 2 -8 -3 -7
-4 1 -16 -1 -26 -6 -15 -6 -16 -10 -5 -16 10 -7 9 -9 -4 -9 -10 0 -18 -4 -18
-10 0 -5 -6 -10 -14 -10 -8 0 -17 -11 -20 -25 -4 -14 -10 -24 -14 -21 -10 6
-63 -50 -91 -97 -13 -20 -26 -35 -30 -32 -4 2 -18 -9 -30 -26 -12 -16 -26 -27
-32 -24 -5 4 -9 -1 -9 -10 0 -9 -4 -13 -10 -10 -5 3 -10 1 -10 -6 0 -7 -3 -9
-7 -6 -3 4 -17 -8 -30 -25 -12 -18 -23 -28 -24 -22 0 5 -4 -1 -10 -14 -5 -13
-13 -21 -17 -18 -5 3 -14 -6 -21 -20 -6 -14 -16 -22 -21 -19 -6 3 -10 3 -10
-2 -1 -4 -12 -21 -26 -38 -15 -16 -23 -23 -19 -15 4 8 -6 2 -22 -15 -16 -16
-29 -32 -29 -35 1 -3 -2 -5 -6 -5 -4 0 -18 -15 -31 -32 -13 -18 -27 -30 -30
-26 -4 3 -7 -1 -7 -11 0 -9 -4 -15 -9 -11 -5 3 -18 -8 -27 -25 -10 -16 -25
-30 -33 -30 -8 0 -11 -3 -8 -6 4 -4 -10 -22 -30 -40 -20 -19 -34 -36 -31 -39
7 -8 -74 -91 -85 -87 -5 1 -6 -2 -2 -8 3 -5 1 -10 -5 -10 -6 0 -9 -4 -5 -9 3
-6 -3 -14 -12 -20 -10 -5 -15 -13 -10 -17 4 -4 -3 -12 -14 -18 -12 -6 -30 -26
-39 -43 -9 -18 -20 -30 -24 -26 -3 3 -6 0 -6 -8 0 -7 -12 -24 -27 -36 -14 -13
-21 -23 -14 -23 6 0 -2 -13 -19 -30 -30 -30 -40 -47 -18 -34 7 5 8 3 4 -5 -5
-7 -14 -10 -22 -7 -9 3 -11 0 -7 -11 4 -11 2 -14 -5 -9 -8 5 -12 0 -12 -14 0
-12 -4 -18 -10 -15 -5 3 -10 -1 -10 -10 0 -9 -4 -13 -10 -10 -9 6 -15 -8 -11
-29 1 -5 -5 -6 -14 -2 -10 3 -13 2 -10 -5 4 -5 -1 -22 -11 -37 -10 -15 -17
-30 -16 -34 1 -5 -1 -7 -6 -5 -10 3 -52 -40 -45 -47 4 -3 2 -6 -4 -6 -6 0 -14
-11 -17 -25 -4 -14 -11 -25 -17 -25 -6 0 -7 -4 -4 -10 3 -5 -1 -10 -9 -10 -8
0 -18 -5 -22 -12 -5 -7 -3 -8 5 -3 14 8 -18 -46 -32 -56 -5 -3 -8 -9 -8 -13 1
-4 -10 -21 -24 -40 -14 -18 -25 -40 -25 -49 0 -9 -8 -21 -17 -26 -10 -6 -13
-11 -8 -11 6 0 -3 -11 -19 -25 -16 -14 -26 -25 -22 -25 3 0 -1 -11 -10 -25 -9
-14 -12 -25 -8 -25 5 0 1 -5 -9 -11 -9 -6 -15 -14 -12 -19 3 -4 -2 -11 -11
-14 -9 -4 -14 -13 -10 -22 3 -8 2 -12 -4 -9 -6 3 -10 1 -10 -6 0 -7 -8 -21
-17 -31 -16 -18 -16 -19 3 -12 15 5 13 1 -7 -17 -14 -13 -25 -32 -23 -41 1
-10 -6 -20 -18 -24 -16 -5 -18 -8 -7 -15 11 -7 11 -9 -3 -9 -12 0 -16 -6 -13
-20 2 -11 0 -18 -6 -15 -5 4 -9 -3 -9 -14 0 -11 -7 -26 -15 -35 -9 -8 -16 -19
-15 -23 0 -22 -13 -44 -25 -40 -9 4 -12 -4 -10 -24 1 -16 -2 -29 -7 -29 -5 0
-7 -4 -4 -9 3 -4 -3 -18 -13 -30 -11 -12 -18 -33 -16 -47 2 -17 -2 -24 -11
-20 -8 3 -11 0 -8 -8 3 -7 -2 -21 -11 -30 -9 -9 -14 -20 -11 -25 3 -5 -1 -12
-10 -15 -8 -3 -12 -11 -9 -17 4 -5 -1 -20 -12 -31 -12 -14 -13 -18 -3 -13 12
7 13 6 3 -7 -7 -8 -10 -18 -7 -21 3 -3 -1 -16 -9 -28 -9 -11 -13 -28 -10 -35
3 -8 -1 -14 -11 -14 -9 0 -16 -5 -16 -11 0 -5 6 -7 12 -3 9 6 9 3 -1 -9 -7 -9
-11 -24 -7 -32 3 -9 2 -13 -4 -10 -6 3 -11 -1 -11 -9 -2 -25 -4 -30 -12 -43
-5 -7 -5 -18 -1 -25 5 -7 3 -8 -6 -3 -10 6 -12 3 -8 -13 4 -12 0 -26 -8 -33
-8 -6 -11 -15 -8 -20 3 -5 -2 -9 -12 -9 -14 0 -15 -2 -3 -17 10 -12 11 -15 1
-9 -9 6 -11 1 -8 -18 3 -17 1 -24 -5 -20 -6 4 -9 -2 -7 -13 2 -11 -3 -28 -11
-37 -8 -10 -15 -32 -15 -51 -1 -18 -4 -31 -8 -28 -5 2 -8 1 -9 -4 0 -4 -2 -18
-3 -30 -2 -13 -10 -31 -20 -42 -10 -11 -13 -22 -8 -25 11 -6 10 -31 -1 -42 -3
-4 -2 -16 4 -27 6 -10 7 -17 2 -14 -5 3 -15 -3 -22 -15 -7 -11 -8 -17 -2 -13
15 9 14 -1 -4 -35 -14 -28 -13 -35 8 -31 5 1 6 -3 2 -9 -3 -6 -11 -8 -16 -5
-9 6 -11 -2 -12 -42 0 -12 -3 -20 -7 -18 -4 3 -11 -2 -14 -11 -3 -8 -2 -12 4
-9 6 3 7 -1 4 -9 -3 -9 -10 -16 -14 -16 -5 0 -7 -12 -4 -26 3 -14 1 -23 -3
-21 -4 3 -9 -7 -10 -22 -3 -43 -7 -55 -23 -69 -13 -12 -13 -13 0 -6 12 6 13 5
4 -7 -5 -8 -10 -23 -9 -34 0 -11 -3 -30 -7 -42 -5 -16 -3 -23 5 -23 8 0 9 -3
1 -8 -13 -9 -27 -45 -15 -37 5 3 8 -3 6 -12 -2 -10 -4 -18 -5 -18 -1 0 -3 -13
-5 -30 -1 -16 -5 -41 -10 -54 -5 -18 -4 -22 6 -16 8 4 3 -2 -10 -13 -14 -11
-19 -22 -13 -25 9 -6 6 -76 -4 -86 -2 -2 2 -11 9 -19 9 -12 9 -16 0 -19 -8 -3
-11 -14 -7 -29 4 -16 2 -24 -7 -24 -11 0 -11 -3 1 -10 13 -8 12 -10 -4 -10
-20 0 -20 0 0 -15 13 -10 14 -14 5 -15 -10 0 -11 -3 -3 -13 7 -8 7 -18 2 -27
-5 -8 -4 -22 2 -33 6 -12 6 -17 0 -13 -5 3 -12 -1 -16 -9 -3 -8 -1 -17 5 -20
5 -4 6 -12 2 -18 -13 -21 -13 -58 0 -50 9 5 9 3 1 -8 -6 -8 -12 -21 -12 -29
-1 -8 -3 -38 -5 -67 -2 -29 0 -50 5 -46 5 3 4 -4 -3 -15 -11 -18 -10 -24 6
-44 11 -12 13 -17 5 -11 -13 10 -15 5 -16 -32 0 -27 3 -42 9 -38 6 4 7 1 2 -8
-5 -7 -10 -26 -12 -42 -2 -20 0 -26 10 -21 9 6 9 4 -1 -8 -15 -19 -13 -88 3
-88 7 0 7 -3 0 -8 -14 -9 -14 -45 0 -54 6 -5 6 -8 -2 -8 -13 0 -12 -18 1 -39
6 -10 5 -12 -2 -7 -8 5 -12 -1 -12 -14 0 -14 4 -19 13 -14 9 6 9 4 0 -7 -17
-17 -17 -89 0 -89 8 0 8 -3 2 -8 -12 -8 -12 -87 -1 -117 6 -16 6 -17 -3 -5 -9
12 -11 13 -11 1 0 -8 7 -23 17 -33 9 -10 11 -18 5 -18 -6 0 -12 6 -15 13 -3 6
-4 2 -4 -10 1 -13 5 -23 10 -23 5 0 5 -6 0 -12 -12 -15 -13 -49 -2 -42 5 2 6
12 3 22 -5 14 -4 15 5 2 7 -11 6 -21 -5 -39 -10 -15 -11 -21 -3 -16 9 6 11 3
6 -8 -3 -10 -3 -17 2 -17 7 0 7 -41 -1 -67 -1 -4 4 -19 11 -32 8 -14 9 -21 2
-17 -6 4 -11 4 -12 -1 0 -4 -2 -18 -3 -31 -2 -13 2 -26 7 -29 6 -3 7 -1 3 5
-3 6 -3 13 2 16 4 2 8 -6 8 -20 0 -13 -3 -24 -8 -24 -4 0 -4 -10 1 -22 4 -13
6 -29 3 -37 -3 -9 0 -11 8 -6 9 5 10 3 3 -11 -11 -22 -11 -34 0 -51 5 -8 3
-13 -5 -13 -9 0 -9 -3 2 -10 8 -5 11 -10 5 -10 -5 0 -3 -5 5 -10 9 -6 10 -10
3 -10 -11 0 -10 -29 3 -72 3 -10 0 -18 -6 -18 -6 0 -8 -5 -5 -10 4 -6 10 -8
14 -6 9 6 7 -31 -2 -40 -4 -4 -2 -13 4 -21 6 -7 9 -13 5 -13 -4 0 2 -12 11
-27 10 -15 12 -24 6 -20 -10 6 -11 2 -5 -15 4 -13 7 -32 7 -43 0 -11 4 -23 10
-27 6 -5 5 -8 -4 -8 -8 0 -4 -8 10 -21 13 -11 19 -18 12 -15 -6 4 -14 2 -18
-4 -3 -5 -2 -10 4 -10 12 0 24 -34 26 -73 1 -16 6 -32 11 -35 11 -8 12 -27 1
-38 -4 -4 0 -15 8 -24 9 -10 17 -32 18 -51 1 -19 9 -40 17 -47 12 -11 12 -14
2 -19 -10 -4 -9 -9 5 -20 10 -8 12 -12 6 -8 -9 4 -11 1 -7 -9 3 -9 9 -16 13
-16 4 0 7 -17 6 -37 0 -22 6 -44 15 -51 13 -12 13 -13 0 -6 -13 7 -13 5 -2 -9
8 -9 11 -21 7 -27 -3 -5 0 -10 8 -10 10 0 13 -9 11 -27 -1 -15 3 -34 9 -42 10
-12 9 -13 -3 -7 -8 4 -6 0 4 -8 11 -9 16 -16 12 -16 -5 0 -3 -6 3 -13 6 -8 8
-17 4 -20 -3 -4 -2 -7 4 -7 5 0 10 -7 11 -15 1 -8 3 -22 4 -30 1 -8 5 -15 9
-15 4 0 10 -7 13 -16 4 -10 2 -13 -7 -8 -7 5 -6 1 2 -10 8 -10 15 -27 16 -38
1 -11 7 -23 14 -28 7 -4 12 -10 12 -14 -4 -25 0 -36 11 -30 8 5 9 2 5 -9 -8
-22 2 -49 15 -41 6 4 6 -1 0 -13 -9 -15 -7 -23 9 -37 11 -9 17 -21 14 -26 -3
-6 0 -10 7 -10 9 0 9 -3 -2 -10 -13 -8 -13 -10 2 -10 11 0 16 -6 13 -19 -2
-11 2 -22 9 -24 8 -3 12 -17 11 -30 -2 -16 3 -28 12 -31 8 -4 13 -13 10 -20
-3 -8 -1 -16 4 -18 6 -2 12 -16 12 -31 1 -15 6 -27 10 -27 8 0 30 -54 27 -66
-1 -3 7 -12 17 -21 10 -8 11 -11 3 -7 -13 7 -13 5 -2 -9 8 -9 10 -22 6 -28 -4
-8 -3 -9 4 -5 7 4 12 1 12 -8 0 -8 8 -20 18 -25 9 -6 13 -11 9 -11 -4 0 -2
-10 5 -23 7 -12 11 -25 10 -29 -1 -5 3 -8 9 -8 5 0 7 -4 4 -10 -3 -5 -1 -10 6
-10 7 0 10 -3 6 -6 -3 -4 1 -13 9 -21 8 -8 12 -19 9 -24 -4 -5 -1 -9 6 -9 7 0
10 -3 6 -6 -3 -4 -1 -12 6 -20 35 -39 37 -42 24 -47 -7 -3 -4 -6 6 -6 10 -1
15 -5 12 -11 -3 -5 -1 -10 5 -10 6 0 8 -4 5 -10 -3 -5 -1 -10 5 -10 7 0 10 -7
6 -15 -3 -9 0 -15 10 -15 9 0 14 -7 12 -18 -2 -9 2 -16 7 -15 6 1 12 -8 12
-19 1 -11 9 -25 17 -31 8 -7 16 -19 18 -27 2 -8 13 -25 25 -37 13 -12 23 -32
23 -43 0 -12 5 -18 10 -15 6 3 10 -1 10 -9 0 -9 5 -16 11 -16 6 0 9 -6 6 -14
-3 -8 1 -17 10 -20 9 -4 13 -12 9 -23 -4 -10 -4 -14 0 -10 4 4 13 -1 20 -11 9
-13 9 -19 1 -24 -8 -5 -6 -8 6 -8 9 0 17 -6 17 -13 0 -7 13 -23 29 -37 17 -13
28 -27 25 -32 -3 -4 4 -13 16 -20 11 -7 20 -18 20 -24 0 -16 36 -55 43 -47 4
3 4 -4 2 -16 -2 -12 0 -19 4 -16 5 3 12 -2 15 -11 3 -9 11 -12 18 -8 8 5 9 2
5 -9 -4 -11 0 -21 12 -29 11 -7 16 -19 13 -30 -3 -14 0 -17 12 -12 9 3 16 1
16 -6 0 -6 4 -8 10 -5 5 3 7 0 4 -9 -3 -9 3 -20 15 -28 12 -7 21 -19 21 -26 0
-7 5 -10 10 -7 6 3 10 -1 10 -9 0 -9 5 -16 11 -16 6 0 9 -9 6 -20 -3 -11 -1
-18 3 -15 5 3 17 -6 28 -20 11 -13 22 -21 26 -18 3 3 6 -4 6 -16 0 -12 8 -25
18 -28 18 -7 48 -33 37 -33 -3 0 5 -11 19 -24 15 -13 26 -29 26 -35 0 -7 5 -9
10 -6 5 3 10 -1 10 -10 0 -9 4 -13 10 -10 5 3 10 0 10 -8 0 -8 9 -17 20 -20
11 -3 20 -12 20 -21 0 -9 8 -16 17 -16 9 0 13 -3 10 -7 -4 -3 3 -11 14 -17 12
-6 21 -15 20 -19 -1 -5 7 -17 18 -26 12 -10 21 -21 21 -25 0 -15 39 -48 49
-41 6 3 11 -1 11 -9 0 -9 5 -16 11 -16 5 0 7 -5 3 -12 -5 -8 -2 -9 9 -5 12 4
17 1 17 -11 1 -20 20 -46 38 -50 23 -4 64 -52 58 -67 -3 -9 0 -12 9 -8 8 3 18
-2 21 -11 3 -9 15 -16 25 -16 13 0 17 -5 12 -17 -4 -11 -3 -14 5 -9 7 4 12 2
12 -3 0 -6 5 -11 11 -11 6 0 17 -7 25 -15 9 -8 13 -15 9 -15 -4 0 0 -7 9 -15
8 -8 20 -15 26 -15 6 0 8 -4 5 -10 -3 -5 3 -10 14 -10 12 0 21 -4 21 -10 0 -5
6 -10 14 -10 8 0 12 -9 10 -26 -2 -19 1 -23 10 -15 9 7 20 0 41 -24 17 -19 36
-35 44 -35 17 0 91 -66 83 -74 -3 -3 0 -7 6 -7 7 -1 17 -2 22 -3 6 0 21 -13
34 -28 13 -16 28 -28 35 -28 6 0 11 -9 11 -21 0 -11 5 -17 10 -14 6 3 10 0 10
-7 0 -11 2 -11 8 0 7 10 13 6 28 -13 10 -14 29 -25 41 -25 13 0 23 -4 23 -10
0 -12 60 -70 72 -70 5 0 16 -7 25 -16 9 -8 22 -13 30 -10 8 3 11 1 8 -4 -3 -6
0 -10 7 -10 7 0 19 -9 26 -20 7 -12 16 -19 21 -16 4 3 18 -4 29 -15 12 -11 22
-17 22 -13 0 4 11 -5 25 -20 14 -15 25 -24 25 -20 0 3 6 1 13 -5 8 -6 17 -8
20 -4 4 3 7 1 7 -6 0 -8 7 -11 15 -7 8 3 14 0 12 -6 -1 -7 3 -12 8 -13 22 -2
55 -27 49 -37 -4 -7 -3 -8 4 -4 7 4 12 2 12 -3 0 -6 7 -11 15 -11 9 0 18 -6
21 -14 3 -8 11 -13 19 -10 7 3 15 -2 18 -10 4 -9 15 -13 27 -11 16 3 20 0 16
-10 -3 -9 0 -12 8 -9 7 3 20 -1 27 -8 8 -7 21 -14 29 -16 8 -2 17 -8 18 -13 2
-5 10 -9 18 -9 9 0 12 -4 9 -10 -3 -6 1 -7 9 -4 9 3 16 2 16 -2 0 -11 61 -40
74 -36 5 2 6 -4 3 -12 -4 -9 0 -13 11 -11 9 1 25 -4 35 -13 9 -8 17 -11 17 -6
0 5 4 3 9 -4 4 -7 17 -15 27 -16 10 -2 18 -8 17 -14 -2 -6 6 -9 17 -7 11 2 20
-2 20 -8 0 -7 12 -13 26 -13 14 -1 33 -12 41 -24 8 -12 21 -19 29 -16 8 3 17
-1 20 -9 4 -10 15 -13 30 -11 14 3 22 1 19 -4 -7 -11 21 -21 40 -14 8 4 15 2
15 -3 0 -4 9 -14 21 -21 17 -11 20 -11 13 0 -4 7 2 5 13 -5 11 -9 23 -14 26
-10 4 3 7 -1 7 -11 0 -9 5 -14 10 -11 6 4 8 12 4 18 -3 7 1 4 10 -7 8 -10 22
-16 31 -13 8 4 15 2 15 -3 0 -8 53 -29 86 -34 9 -1 19 -7 22 -13 4 -5 18 -9
30 -8 13 1 26 -4 29 -11 2 -7 13 -11 24 -9 10 2 18 1 18 -3 -3 -18 2 -26 9
-14 6 9 19 7 55 -11 26 -14 51 -20 59 -16 14 9 31 1 23 -11 -3 -5 10 -8 29 -7
22 2 32 -1 29 -8 -3 -8 8 -12 31 -10 21 1 37 -4 40 -12 3 -8 17 -11 36 -9 19
2 30 -1 30 -9 0 -8 11 -12 29 -11 17 1 28 -1 25 -5 -2 -4 3 -10 12 -13 23 -9
26 -8 18 7 -5 8 -2 8 9 -2 9 -7 17 -11 17 -7 0 3 16 -3 36 -14 19 -11 33 -17
30 -12 -3 5 1 9 9 9 8 0 12 -4 9 -8 -3 -5 8 -11 23 -15 15 -3 33 -7 40 -9 6
-2 14 1 17 8 2 7 5 4 5 -6 1 -13 7 -16 26 -13 14 3 25 0 25 -6 0 -7 5 -6 14 1
11 9 17 8 28 -2 7 -8 26 -13 41 -13 15 1 27 -2 27 -7 0 -5 9 -5 20 -2 11 3 20
2 20 -4 0 -5 9 -8 19 -6 11 2 22 -3 25 -12 4 -9 9 -13 12 -10 3 3 17 2 31 -4
13 -5 22 -5 19 -1 -2 4 13 8 35 7 21 0 39 -5 39 -11 0 -6 11 -16 25 -22 33
-15 38 -15 29 0 -4 6 3 4 16 -5 22 -15 26 -15 41 -1 13 12 19 12 25 3 5 -8 3
-10 -6 -4 -9 5 -11 4 -6 -3 4 -7 15 -8 29 -3 15 6 26 4 36 -6 7 -8 19 -12 27
-9 7 3 16 1 20 -5 4 -7 10 -6 19 1 9 7 15 8 19 1 5 -7 15 -7 33 0 20 7 28 6
35 -3 4 -7 8 -9 8 -4 0 5 6 4 13 -2 15 -12 138 -19 155 -8 7 4 12 2 12 -4 0
-7 6 -8 16 -2 19 11 56 4 49 -8 -3 -5 3 -7 12 -5 10 2 18 4 18 5 0 1 8 3 18 5
9 2 15 -1 12 -5 -8 -12 37 -9 54 4 12 9 13 8 7 -3 -6 -9 -5 -12 5 -9 8 3 13
11 11 18 -2 10 1 10 14 0 18 -16 166 -22 157 -7 -3 5 4 6 15 3 47 -15 64 -15
58 -1 -3 9 0 12 9 8 8 -3 12 -9 9 -14 -3 -5 7 -4 21 1 31 12 38 12 32 3 -3 -5
10 -8 28 -8 18 0 31 3 29 7 -2 4 0 9 6 13 5 3 10 2 10 -3 0 -14 49 -21 57 -9
4 6 1 7 -7 2 -8 -5 -11 -4 -6 3 4 6 13 9 21 6 8 -4 12 -11 8 -18 -4 -7 -2 -7
8 1 12 10 18 10 29 0 10 -9 11 -9 6 1 -9 16 6 16 23 0 11 -10 13 -10 7 0 -7
11 5 17 27 13 4 -1 17 3 27 9 16 9 20 7 21 -7 0 -14 2 -13 9 4 5 13 12 23 15
23 4 0 4 -4 1 -9 -3 -5 1 -12 10 -15 22 -8 26 -8 20 3 -4 5 1 8 10 7 8 -1 20
-9 25 -17 7 -11 9 -11 9 3 0 15 4 16 27 7 19 -7 29 -7 31 0 2 6 9 8 15 4 17
-10 47 -11 41 -1 -5 8 17 12 45 9 7 -2 10 2 6 8 -4 7 1 8 17 3 13 -5 40 -7 61
-6 20 1 37 -3 37 -9 0 -6 9 -2 20 9 34 34 48 43 54 36 12 -11 40 -11 48 1 6 9
8 9 8 -1 0 -8 5 -10 12 -6 15 9 58 10 80 2 9 -4 31 1 49 11 19 10 40 16 48 13
9 -3 11 0 6 8 -6 10 -3 12 11 6 27 -11 25 -11 72 3 23 6 41 15 38 19 -2 4 20
6 50 5 34 -1 54 2 54 9 0 6 3 8 6 5 4 -3 16 -2 27 4 14 8 18 8 13 0 -5 -8 0
-8 17 -2 14 6 29 7 33 3 5 -4 3 0 -4 9 -11 15 -9 17 23 13 19 -1 35 2 35 7 0
6 10 10 23 9 29 -3 67 10 67 22 0 5 5 6 10 3 13 -8 52 4 46 14 -3 4 4 7 15 7
10 0 19 -4 19 -9 0 -5 7 -2 15 7 9 8 22 13 30 10 8 -4 15 -1 15 6 0 6 4 9 9 6
14 -9 42 5 35 18 -3 6 1 3 8 -6 13 -16 15 -16 28 2 9 13 18 16 25 10 8 -6 18
-4 31 6 10 8 12 12 4 8 -8 -4 -12 -3 -7 1 9 11 57 13 51 3 -3 -4 -1 -8 4 -8 6
0 13 7 16 16 3 8 10 13 15 10 5 -4 11 -1 13 4 3 10 21 16 51 19 5 1 5 7 1 14
-5 8 -2 8 9 -2 13 -10 17 -10 17 -1 0 7 7 10 15 6 8 -3 15 0 15 6 0 6 6 5 17
-3 11 -10 14 -10 9 -1 -7 11 -3 13 32 16 7 1 16 6 20 12 8 12 45 28 38 16 -3
-5 1 -9 9 -9 8 0 12 4 9 9 -5 8 9 12 34 9 6 -1 12 6 12 16 0 14 2 15 9 5 7
-11 11 -11 22 1 8 7 20 12 27 9 6 -2 12 2 12 8 0 7 8 10 20 7 13 -3 20 0 20 8
0 8 5 17 12 21 6 4 8 3 5 -3 -4 -6 4 -10 18 -10 13 0 23 5 22 11 -1 6 8 11 21
10 13 0 22 5 22 14 0 9 3 13 6 10 3 -4 21 0 40 8 19 8 34 12 34 9 0 -3 11 5
25 17 14 12 35 23 47 25 12 2 26 9 30 16 4 6 8 8 8 2 0 -5 7 -2 15 9 7 10 18
15 24 11 6 -3 11 1 11 9 0 9 3 15 8 14 17 -4 61 15 66 29 3 8 10 11 16 8 6 -3
13 1 16 9 3 9 11 13 17 9 6 -4 8 0 5 9 -5 11 1 14 23 13 16 -1 30 4 33 12 3 8
10 12 15 9 5 -4 11 -2 13 2 1 5 17 16 33 24 17 8 29 20 27 26 -1 7 1 11 5 11
22 -4 44 2 39 10 -3 5 6 12 19 15 16 4 23 11 19 18 -5 8 -2 9 9 5 11 -4 20 1
27 13 6 11 16 19 23 17 7 -1 11 3 10 10 -2 7 6 10 17 8 14 -3 17 1 13 13 -3 9
-3 14 2 10 4 -4 14 0 22 10 8 9 11 11 8 4 -6 -11 -3 -11 13 -1 12 7 19 16 17
19 -2 4 11 13 30 20 19 7 32 17 29 22 -3 4 2 8 11 8 9 0 13 5 10 10 -3 6 5 10
19 10 15 0 30 8 36 20 6 11 18 20 26 20 10 0 14 6 11 14 -4 10 -1 13 8 9 8 -3
18 2 21 11 3 9 10 13 15 10 5 -3 9 0 9 7 0 7 8 9 21 6 17 -5 18 -3 7 11 -7 9
-8 13 -2 9 6 -3 22 5 36 18 14 13 29 21 32 18 3 -4 6 1 6 11 0 9 5 14 10 11 6
-3 10 -2 10 4 0 6 7 7 17 4 10 -4 14 -2 10 5 -4 6 9 18 32 28 22 10 38 21 35
26 -3 4 2 8 11 8 10 0 13 5 9 12 -5 8 -2 9 10 5 9 -4 15 -3 12 2 -3 5 1 14 9
21 8 7 15 9 15 6 0 -4 14 7 30 24 17 17 30 28 30 25 0 -4 12 7 26 24 14 17 32
31 40 31 8 0 17 7 20 15 4 8 10 13 14 10 5 -3 13 3 19 12 6 11 11 13 11 5 0
-7 5 -10 11 -7 6 4 8 10 5 13 -7 6 36 38 47 34 4 -1 7 5 7 13 0 8 9 19 20 25
11 6 18 16 14 22 -4 7 1 8 16 3 15 -5 20 -4 16 4 -4 6 13 31 38 56 28 29 46
41 49 33 4 -10 6 -10 6 0 1 17 27 43 35 35 3 -4 6 1 6 10 0 10 4 17 9 17 5 0
25 16 44 35 19 19 33 35 30 35 -3 0 14 16 37 35 23 19 38 35 34 35 -5 0 2 7
14 16 12 8 20 20 17 25 -3 5 0 6 8 3 8 -3 18 -1 22 5 3 6 1 11 -5 11 -7 0 -6
5 2 14 7 8 15 12 17 10 7 -6 41 28 41 40 0 6 19 29 43 51 23 22 42 47 42 55 0
8 5 15 10 16 24 2 45 17 45 33 0 9 13 27 30 41 16 14 30 30 30 37 0 6 9 15 20
18 11 4 20 15 20 27 0 13 5 18 14 15 17 -7 31 26 20 44 -4 7 -3 9 3 6 12 -7
63 36 63 53 0 6 13 25 30 43 16 18 30 40 30 50 0 10 3 16 8 14 9 -5 42 30 34
37 -3 3 0 6 6 6 7 0 12 7 12 15 0 8 9 20 20 27 11 7 20 20 20 28 1 20 25 52
33 43 4 -3 7 3 7 15 0 12 4 22 8 22 11 0 43 56 36 63 -3 3 4 8 15 12 12 3 19
11 16 16 -4 5 -1 9 5 9 7 0 10 7 6 15 -3 9 0 15 10 15 8 0 12 5 9 10 -3 6 1
10 10 10 9 0 13 5 10 11 -4 5 1 19 11 30 9 10 14 19 9 19 -4 0 -2 7 5 15 7 8
17 12 23 8 6 -3 7 -1 3 5 -4 7 -3 12 3 12 5 0 8 9 6 20 -2 11 -1 19 3 17 4 -1
7 1 7 5 0 4 9 14 20 22 11 9 17 16 12 16 -4 0 4 18 18 40 14 22 22 40 19 40
-4 0 1 9 11 20 10 11 15 20 11 20 -4 0 0 7 8 16 9 8 14 19 11 24 -3 4 2 11 11
14 8 3 13 10 9 15 -3 6 3 14 12 20 10 6 14 11 9 11 -5 0 -1 9 9 20 10 11 14
20 10 20 -4 0 0 9 9 19 10 11 15 25 11 30 -3 6 -2 11 4 11 6 0 13 11 17 25 3
14 11 25 16 25 6 0 8 9 5 20 -3 10 1 24 9 31 8 6 11 15 8 20 -3 5 2 12 10 15
9 3 13 10 10 15 -3 5 1 12 9 15 8 3 14 13 12 22 -1 9 2 23 8 31 6 7 13 25 15
39 2 15 8 30 14 33 6 4 7 12 4 18 -4 6 -2 11 3 11 6 0 11 6 11 14 0 7 7 19 15
26 9 7 14 19 11 26 -3 7 2 15 11 18 8 4 13 13 9 21 -3 8 -1 17 5 20 5 4 7 11
4 16 -4 5 -1 9 5 9 7 0 10 6 7 14 -3 8 -1 16 5 18 6 2 12 13 12 24 1 11 6 26
11 34 5 8 10 26 11 38 0 13 7 28 14 32 8 5 10 17 6 35 -6 23 -4 26 10 21 12
-4 15 -2 11 9 -4 8 1 21 9 30 9 9 13 22 10 30 -3 8 1 21 10 29 8 8 14 19 13
23 -4 25 2 53 11 48 6 -3 10 -2 10 4 0 5 -5 13 -11 16 -6 5 -4 12 8 20 12 9
16 24 15 51 -2 20 2 40 9 44 6 4 12 22 14 41 1 18 8 35 14 37 9 3 9 8 0 19 -8
9 -9 17 -3 21 6 4 11 18 11 30 1 13 10 30 20 38 10 7 13 14 6 14 -12 0 -11 12
5 51 5 14 9 40 8 57 -1 18 2 32 7 32 4 0 5 5 2 10 -3 5 -2 10 2 10 5 0 10 14
11 32 1 17 10 38 20 45 9 8 11 11 3 7 -20 -10 -6 78 16 94 9 6 12 12 7 12 -12
0 -12 29 -1 47 4 6 3 14 -2 18 -6 3 -8 12 -5 20 4 8 10 13 14 10 5 -3 6 4 3
15 -3 13 0 20 8 20 11 0 11 2 -1 10 -11 7 -11 10 -2 10 9 0 10 5 3 18 -7 13
-6 23 1 30 7 7 13 28 13 47 1 19 4 38 8 41 3 3 3 13 0 22 -4 10 -2 13 5 8 6
-3 13 -2 16 3 4 5 3 12 -2 14 -15 10 -6 87 14 109 10 12 14 18 8 15 -7 -4 -17
0 -24 8 -11 13 -10 14 5 9 15 -6 16 -4 6 14 -13 25 -14 35 -2 28 5 -3 11 1 15
9 3 8 0 15 -6 15 -7 0 -7 4 1 14 9 11 9 15 -1 18 -10 4 -11 8 -1 20 7 8 10 17
7 21 -9 9 -11 67 -2 67 4 0 3 11 -2 25 -8 20 -6 29 10 45 12 12 15 20 7 23 -9
3 -9 7 -1 18 7 8 11 29 9 46 -2 22 1 31 9 26 6 -3 6 0 -1 8 -14 14 -18 33 -5
26 14 -9 8 189 -7 207 -12 14 -12 16 0 11 11 -4 14 4 14 34 0 22 -4 43 -9 48
-5 5 -6 2 -1 -6 6 -10 4 -12 -5 -6 -10 6 -10 11 3 20 9 7 14 15 10 19 -10 9
-13 37 -4 31 5 -2 8 9 7 24 -1 16 -4 27 -7 25 -10 -6 -16 17 -15 54 1 17 -3
32 -8 32 -6 0 -1 7 10 16 10 8 13 12 5 8 -11 -5 -13 -2 -9 14 3 11 -1 31 -10
43 -8 12 -11 19 -5 16 6 -4 13 0 17 8 3 8 1 17 -4 20 -9 6 -8 24 3 41 3 6 3
14 0 18 -9 9 -11 66 -2 60 4 -2 10 3 13 12 3 8 2 12 -4 9 -9 -5 -12 1 -9 21 0
4 -5 10 -12 15 -10 6 -10 11 -1 22 7 7 9 16 6 20 -10 9 -11 67 -1 67 4 0 5 4
2 10 -3 5 -8 27 -10 47 -5 51 -10 71 -18 79 -4 4 -2 13 4 20 7 8 7 14 0 18 -7
5 -7 15 -1 31 7 17 6 25 -1 25 -6 0 -9 7 -5 15 3 8 0 28 -6 43 -16 39 -18 52
-6 52 7 0 7 4 0 13 -7 8 -7 18 -2 27 6 10 3 20 -11 33 -16 15 -18 22 -8 33 9
11 9 14 0 14 -7 0 -9 5 -6 10 3 6 3 16 -2 23 -4 6 -8 17 -9 22 -1 6 -5 24 -9
40 -4 17 -7 42 -7 57 1 15 -3 30 -9 33 -5 4 -7 11 -4 16 4 5 2 9 -3 9 -6 0 -8
9 -5 20 3 11 0 20 -6 20 -5 0 -8 7 -5 15 4 8 1 22 -6 30 -8 10 -9 15 -2 15 6
0 9 7 6 15 -4 8 -9 13 -14 10 -4 -2 -6 7 -4 22 1 14 -4 32 -12 40 -16 16 -19
33 -5 33 13 0 1 38 -14 44 -7 2 -11 16 -10 30 2 14 -1 26 -7 26 -6 0 -8 7 -5
15 4 8 2 17 -4 21 -6 3 -8 13 -5 21 4 9 -2 22 -11 30 -10 8 -12 11 -5 8 11 -6
11 -3 0 14 -7 12 -15 21 -18 21 -3 0 -6 11 -6 25 -1 16 2 22 9 18 6 -4 2 7 -9
23 -11 16 -20 36 -19 44 0 8 -9 31 -21 50 -11 19 -20 43 -18 53 1 9 -2 17 -7
17 -5 0 -9 9 -9 20 0 11 -5 20 -11 20 -6 0 -9 7 -5 15 3 8 -3 19 -13 24 -13 7
-17 18 -14 36 4 16 0 27 -9 30 -8 3 -14 16 -13 28 1 12 -2 25 -7 28 -5 3 -10
19 -12 35 -1 16 -7 28 -14 27 -6 -2 -9 6 -7 16 2 11 -2 22 -9 24 -8 3 -12 17
-11 31 2 14 -1 24 -6 21 -4 -3 -11 6 -15 20 -3 14 -10 25 -14 25 -5 0 -7 11
-6 25 2 13 -1 22 -5 19 -5 -3 -9 4 -9 15 0 10 -5 21 -11 23 -5 2 -11 11 -12
20 -2 9 -8 22 -15 30 -6 8 -9 18 -5 21 3 4 1 7 -6 7 -8 0 -11 7 -7 15 3 10 -1
15 -12 15 -12 0 -18 9 -19 32 -1 17 -6 34 -11 37 -17 12 -53 81 -47 91 3 5 -1
10 -9 10 -9 0 -16 9 -16 20 0 11 -9 29 -19 39 -11 11 -17 21 -15 24 2 2 -7 16
-21 31 -14 15 -25 35 -25 45 0 11 -6 21 -14 24 -8 3 -22 23 -32 44 -10 21 -21
40 -25 43 -4 3 -9 12 -11 20 -2 8 -11 23 -20 34 -10 11 -18 26 -18 33 0 8 -4
11 -10 8 -5 -3 -10 1 -10 10 0 9 -4 13 -10 10 -5 -3 -10 3 -10 14 0 11 -5 23
-12 27 -7 5 -8 3 -3 -7 7 -11 5 -11 -9 1 -10 8 -13 16 -8 18 7 2 4 11 -5 22
-9 10 -21 16 -26 13 -6 -3 -7 -1 -3 5 4 7 2 12 -3 12 -6 0 -10 3 -9 8 3 16
-15 42 -31 42 -13 0 -14 -2 -2 -9 12 -8 13 -12 1 -25 -12 -15 -14 -15 -31 0
-10 9 -16 21 -13 25 3 5 -2 6 -11 3 -11 -5 -14 -2 -9 10 5 12 2 15 -10 10 -9
-3 -16 -1 -16 5 0 6 5 11 10 11 6 0 10 7 10 15 0 8 6 12 14 9 11 -4 13 0 9 15
-3 11 -9 19 -13 16 -11 -7 -31 20 -33 44 -1 11 -3 18 -6 16 -8 -8 -31 17 -31
34 0 9 -9 22 -20 29 -12 7 -18 18 -14 24 4 6 3 8 -3 5 -13 -8 -45 26 -41 44 2
8 -3 13 -9 12 -7 -2 -13 4 -13 12 0 8 -5 15 -11 15 -5 0 -7 4 -4 10 3 5 0 7
-8 5 -7 -3 -24 3 -37 15 -13 11 -18 20 -12 20 6 0 9 7 5 16 -3 8 -12 13 -19
10 -8 -3 -14 1 -14 9 0 8 -5 15 -12 15 -9 0 -9 3 0 12 20 20 13 30 -18 26 -20
-3 -30 0 -30 9 0 7 -5 13 -11 13 -5 0 -7 4 -4 10 3 6 -1 7 -9 4 -11 -4 -16 0
-16 11 0 10 -5 13 -12 9 -8 -5 -9 -2 -5 9 3 10 2 17 -4 17 -6 0 -8 3 -6 8 7
10 -19 32 -28 24 -4 -4 -6 0 -5 8 4 27 0 41 -9 35 -5 -3 -21 6 -35 20 -14 14
-26 23 -26 20 0 -4 -11 7 -25 23 -14 17 -25 37 -25 46 0 9 -7 16 -17 16 -9 0
-14 3 -10 6 3 3 -6 18 -20 32 -25 25 -26 25 -39 7 -12 -17 -14 -17 -14 -2 0 9
-3 17 -8 17 -6 0 -32 48 -35 67 -2 14 -22 31 -29 26 -5 -2 -8 3 -8 11 0 9 -6
16 -14 16 -8 0 -18 9 -21 20 -3 11 -15 20 -26 20 -10 0 -19 5 -19 11 0 5 -4 7
-10 4 -5 -3 -10 -1 -10 5 0 6 -7 18 -15 27 -8 8 -13 18 -10 23 3 4 -2 10 -9
13 -8 3 -17 1 -20 -6 -3 -9 -5 -9 -5 0 -1 16 -49 63 -63 63 -6 0 -9 2 -6 5 7
8 -55 73 -64 68 -5 -2 -8 2 -8 10 0 8 -7 18 -16 21 -8 3 -12 10 -9 16 4 6 -1
7 -12 3 -10 -3 -15 -3 -11 2 9 10 -16 35 -36 35 -9 0 -16 5 -16 10 0 6 -8 10
-17 10 -9 0 -14 3 -10 6 8 8 -18 34 -33 34 -7 0 -25 14 -40 30 -15 17 -33 30
-40 30 -6 0 -8 5 -5 10 3 6 -1 10 -9 10 -9 0 -15 5 -13 12 1 7 -7 12 -18 13
-11 0 -19 6 -18 12 2 7 0 12 -5 11 -11 -3 -52 26 -52 37 0 6 -9 16 -21 23 -12
8 -18 9 -14 3 3 -6 2 -11 -3 -11 -6 0 -13 7 -16 16 -3 8 -10 13 -14 10 -5 -3
-20 5 -33 17 -13 12 -26 22 -29 23 -18 3 -39 17 -35 24 3 5 -4 11 -14 15 -11
3 -23 15 -26 26 -4 11 -12 18 -19 16 -6 -3 -20 1 -30 9 -11 7 -24 11 -29 7 -6
-4 -8 0 -4 9 4 12 0 15 -18 14 -16 -2 -26 4 -34 21 -6 13 -15 22 -20 19 -5 -3
-12 1 -15 10 -3 8 -10 13 -15 10 -5 -3 -14 1 -21 9 -7 8 -16 12 -21 9 -5 -3
-12 2 -15 10 -3 9 -10 14 -14 11 -4 -3 -11 2 -14 11 -3 9 -12 14 -19 11 -14
-5 -39 18 -30 27 6 6 1 7 -34 10 -10 0 -29 11 -43 23 -14 13 -31 21 -38 18 -7
-3 -10 0 -7 5 6 9 -16 14 -31 8 -3 -2 -12 8 -19 22 -8 14 -14 19 -15 12 0 -9
-6 -9 -23 3 -13 8 -27 12 -32 8 -4 -5 -5 0 -1 11 5 13 2 17 -9 13 -8 -4 -17
-2 -21 4 -3 6 -10 6 -17 1 -11 -8 -43 15 -49 36 -2 4 -6 6 -10 4 -5 -1 -8 3
-8 9 0 6 -8 8 -19 4 -13 -4 -24 1 -34 15 -10 14 -16 17 -19 9 -3 -8 -14 -2
-30 16 -15 16 -32 25 -41 22 -8 -3 -24 3 -35 13 -15 14 -22 16 -25 7 -3 -7 -6
-4 -6 6 -1 10 -5 15 -11 12 -5 -3 -10 -2 -10 4 0 6 -7 8 -15 5 -10 -4 -15 0
-15 12 0 11 -4 15 -8 9 -10 -14 -52 -15 -49 -1 2 10 -3 12 -46 15 -10 0 -16 5
-13 10 7 11 -49 35 -63 26 -6 -3 -11 -2 -11 4 0 6 -7 8 -15 5 -8 -4 -15 -1
-15 6 0 6 -4 9 -9 6 -5 -3 -14 1 -21 10 -7 8 -19 13 -27 10 -20 -8 -43 4 -43
23 0 13 -2 13 -9 2 -6 -9 -11 -10 -15 -2 -4 6 -16 16 -28 22 -13 7 -18 7 -14
1 4 -6 -2 -10 -14 -9 -11 1 -20 5 -20 10 0 5 -6 4 -14 -2 -11 -10 -17 -8 -25
6 -6 10 -11 14 -11 9 0 -5 -9 -1 -20 9 -11 10 -28 15 -39 12 -12 -3 -22 1 -25
10 -3 8 -10 12 -15 9 -5 -4 -16 1 -24 9 -14 13 -29 16 -94 14 -24 0 -65 30
-57 43 3 4 -6 4 -20 -1 -18 -7 -28 -6 -36 4 -8 10 -18 11 -35 5 -19 -7 -27 -5
-34 8 -8 14 -11 14 -11 2 -1 -12 -3 -12 -14 2 -14 19 -60 25 -89 13 -12 -5
-17 -3 -15 6 2 8 -5 14 -16 14 -11 0 -21 6 -24 13 -2 6 -12 12 -23 12 -10 0
-19 5 -19 10 0 7 -6 7 -20 0 -11 -6 -20 -7 -20 -3 0 4 -5 1 -10 -7 -8 -13 -10
-13 -10 1 0 9 -7 20 -16 23 -10 4 -13 2 -9 -7 4 -6 -2 -2 -12 9 -14 16 -24 19
-36 13 -10 -6 -18 -5 -22 1 -4 6 -11 8 -16 5 -5 -4 -9 -1 -9 4 0 6 -3 10 -7
10 -5 -1 -10 0 -13 1 -13 5 -70 4 -70 -1 0 -12 -38 -2 -55 15 -14 14 -20 15
-26 4 -7 -11 -9 -11 -9 1 0 10 -3 11 -13 2 -8 -6 -17 -8 -20 -4 -11 11 -57 10
-57 -2 0 -6 -3 -7 -8 0 -11 15 -42 18 -42 4 0 -7 -11 -2 -25 11 -14 13 -25 18
-25 11 0 -8 -5 -9 -19 -1 -14 7 -20 7 -23 -1 -3 -8 -9 -6 -20 4 -8 9 -18 13
-22 10 -3 -4 -6 -2 -6 4 0 7 -12 8 -32 4 -25 -6 -38 -3 -52 11 -11 10 -22 15
-25 11 -8 -10 -37 -10 -47 0 -12 11 -26 8 -18 -5 4 -7 3 -8 -5 -4 -16 10 -61
15 -61 7 0 -4 -9 -7 -20 -7 -11 0 -20 4 -20 8 0 4 -7 4 -17 1 -12 -5 -14 -3
-8 8 7 11 6 12 -6 3 -8 -6 -24 -14 -36 -16 -16 -4 -20 -2 -16 9 4 11 2 14 -8
11 -8 -3 -24 -1 -36 3 -16 6 -23 5 -23 -4 0 -8 -4 -7 -10 3 -8 12 -10 12 -10
1 0 -9 -4 -10 -12 -5 -15 11 -38 11 -55 1 -6 -4 -14 -3 -18 3 -3 5 -11 10 -16
10 -6 0 -8 -4 -5 -9 4 -5 -9 -6 -29 -1 -21 5 -38 4 -41 -2 -4 -6 -9 -6 -14 2
-6 9 -12 9 -30 0 -18 -10 -21 -10 -14 2 6 10 5 11 -7 1 -12 -10 -18 -10 -28 0
-10 9 -15 9 -18 0 -2 -7 -10 -10 -17 -7 -23 9 -106 9 -106 1 0 -5 -5 -5 -11
-2 -17 11 -59 13 -59 3 0 -5 -6 -6 -12 -2 -18 11 -48 12 -54 2 -3 -4 -14 -3
-25 2 -15 8 -19 8 -17 -2z m1010 -4036 c8 -6 34 -10 58 -8 25 1 51 -2 58 -7 8
-6 12 -5 12 4 0 11 2 11 10 -1 7 -11 10 -11 10 -2 0 7 5 10 10 7 6 -4 8 -10 5
-15 -3 -5 13 -9 35 -8 22 0 52 -7 66 -17 18 -12 24 -13 19 -4 -3 8 1 5 9 -5
16 -20 16 -20 17 0 1 18 2 18 6 1 3 -13 11 -17 25 -14 10 3 21 0 24 -7 2 -6
17 -13 32 -14 15 -1 29 -7 30 -12 2 -6 12 -10 23 -10 10 0 19 -5 19 -11 0 -6
9 -9 20 -6 13 3 20 0 20 -9 0 -8 9 -14 20 -14 11 0 20 -4 20 -10 0 -5 8 -10
18 -10 10 0 24 -9 32 -19 7 -11 17 -18 22 -15 4 3 8 -3 8 -12 0 -16 1 -16 15
2 13 16 14 16 9 2 -5 -14 -1 -18 17 -18 13 0 37 -11 53 -25 16 -13 32 -23 35
-20 4 2 14 -5 21 -16 8 -10 21 -19 28 -19 8 0 26 -12 40 -27 15 -16 36 -35 46
-43 18 -13 19 -13 11 0 -8 13 -6 13 8 1 9 -7 14 -17 11 -22 -3 -5 0 -9 6 -9
12 0 230 -216 230 -229 0 -14 37 -51 44 -44 3 3 6 -1 6 -10 0 -10 7 -17 16
-17 10 0 14 -6 10 -15 -3 -9 0 -15 9 -15 9 0 12 -6 8 -17 -4 -11 -3 -14 5 -9
8 5 12 -2 12 -19 0 -15 4 -24 10 -20 6 3 10 -1 10 -9 0 -9 5 -16 10 -16 6 0
10 -7 10 -16 0 -9 8 -24 18 -33 9 -9 18 -23 20 -31 2 -8 10 -18 17 -23 8 -4
12 -14 9 -21 -3 -7 2 -16 10 -19 9 -4 13 -13 10 -22 -3 -8 -1 -15 6 -15 6 0 8
-4 5 -10 -3 -5 -2 -10 3 -10 5 0 8 -10 7 -22 -1 -13 6 -29 17 -36 10 -7 18
-22 18 -33 0 -24 24 -51 36 -41 5 4 3 0 -4 -10 -9 -11 -9 -17 -2 -20 6 -2 12
-14 12 -28 1 -14 7 -28 12 -32 6 -4 9 -21 8 -37 -2 -16 4 -43 13 -60 10 -21
12 -31 4 -31 -8 0 -8 -4 -1 -12 5 -7 8 -23 6 -35 -2 -12 3 -23 11 -27 9 -3 12
-12 8 -22 -4 -12 -3 -15 5 -10 13 8 13 9 15 -86 1 -48 5 -68 14 -68 16 0 12
-21 -7 -38 -8 -8 -9 -11 -2 -7 8 4 12 -2 13 -17 1 -13 2 -34 3 -48 0 -14 6
-29 11 -33 6 -6 5 -10 -4 -14 -8 -3 -9 -8 -3 -12 9 -6 16 -39 13 -69 -1 -10
-5 -10 -20 0 -11 7 -18 15 -16 18 2 4 -2 7 -10 8 -8 1 -22 3 -30 4 -8 1 -15 8
-15 16 0 10 -7 13 -21 9 -12 -3 -18 -3 -15 0 10 11 -23 33 -40 26 -14 -5 -16
-3 -11 11 5 14 3 17 -8 12 -8 -3 -24 4 -36 17 -12 12 -19 16 -15 10 10 -18 -9
-16 -24 2 -6 8 -15 14 -18 13 -15 -3 -62 22 -62 32 0 7 -8 9 -20 5 -15 -5 -18
-3 -14 8 4 11 -2 14 -21 11 -19 -2 -25 2 -21 11 3 8 -2 12 -12 10 -9 -1 -23 3
-31 9 -12 8 -13 8 -7 -2 7 -11 4 -11 -13 0 -12 7 -19 18 -17 24 2 6 -2 11 -10
11 -7 0 -10 -5 -7 -11 3 -6 1 -6 -7 1 -7 6 -20 9 -29 6 -9 -4 -13 -2 -9 2 5 5
-2 15 -15 24 -12 9 -22 13 -23 11 0 -3 -9 2 -19 10 -11 8 -16 10 -12 3 5 -8 0
-11 -13 -10 -11 1 -20 7 -20 13 0 6 -9 14 -21 17 -14 4 -18 10 -14 19 6 10 5
10 -4 2 -16 -15 -49 -6 -61 16 -6 11 -20 16 -44 15 -20 0 -36 3 -36 8 0 15
-24 32 -50 35 -14 2 -26 8 -28 12 -2 5 -9 7 -16 4 -8 -3 -21 2 -30 11 -9 9
-20 13 -26 10 -5 -3 -10 1 -10 10 0 11 -6 15 -19 10 -12 -3 -21 0 -25 10 -3 8
-15 15 -26 15 -12 0 -19 4 -15 9 3 6 -3 8 -14 6 -11 -2 -22 3 -25 11 -4 9 -17
13 -38 12 -17 -1 -33 3 -35 9 -3 7 -11 9 -19 6 -9 -3 -22 3 -31 16 -12 17 -18
20 -29 10 -12 -10 -18 -6 -16 12 1 3 -10 5 -24 3 -19 -2 -24 1 -20 12 3 9 1
12 -4 9 -6 -3 -10 0 -10 7 0 10 -2 10 -8 1 -6 -10 -12 -10 -28 2 -10 8 -27 15
-36 15 -10 0 -18 5 -18 11 0 5 -4 7 -10 4 -5 -3 -10 -2 -10 4 0 6 -7 8 -15 5
-8 -4 -15 -1 -15 6 0 7 -6 10 -14 7 -8 -3 -17 1 -20 8 -3 8 -14 12 -26 10 -13
-2 -23 2 -27 11 -3 9 -13 14 -24 11 -10 -3 -20 1 -23 9 -3 8 -19 14 -36 14
-20 0 -33 6 -38 18 -4 10 -17 18 -29 19 -40 1 -44 3 -39 11 2 4 -5 9 -17 9
-11 1 -24 8 -29 16 -5 9 -17 12 -34 9 -21 -4 -25 -2 -19 8 6 9 4 12 -6 8 -8
-3 -23 0 -34 8 -10 8 -27 14 -37 14 -19 0 -51 16 -80 39 -16 12 -18 12 -18 0
-1 -11 -3 -11 -13 2 -13 17 -17 19 -43 19 -8 0 -12 5 -9 10 7 11 -5 13 -42 10
-13 -1 -23 3 -23 9 0 6 -9 11 -21 11 -11 0 -17 5 -14 10 3 6 -4 10 -17 10 -13
0 -30 6 -37 13 -11 10 -13 10 -7 0 4 -7 2 -13 -3 -13 -6 0 -11 7 -11 15 0 9
-6 12 -17 8 -11 -4 -14 -3 -9 5 4 7 5 12 2 12 -2 0 -12 3 -22 7 -13 5 -15 3
-9 -8 5 -7 -3 -4 -19 8 -15 12 -33 20 -41 17 -7 -3 -16 0 -21 7 -5 8 -3 10 7
4 8 -5 11 -4 6 1 -5 5 -14 9 -20 9 -31 2 -68 19 -64 29 3 8 -5 11 -25 8 -21
-3 -29 -1 -24 7 5 7 -1 11 -13 11 -12 0 -21 5 -21 10 0 6 -9 10 -21 10 -11 0
-17 5 -14 10 4 6 -7 10 -24 10 -21 0 -31 5 -31 16 0 8 -5 12 -11 8 -6 -3 -15
0 -20 7 -6 10 -9 11 -9 2 0 -21 -17 -15 -23 8 -3 11 -11 19 -19 17 -16 -4
-128 44 -128 54 0 5 -9 8 -20 8 -10 0 -24 9 -30 20 -6 11 -17 20 -25 20 -8 0
-15 6 -15 14 0 10 -8 13 -25 10 -16 -3 -27 1 -31 10 -3 9 -12 12 -21 9 -10 -4
-14 -2 -10 4 4 5 -5 15 -20 22 -25 11 -25 11 -12 -6 13 -17 13 -17 -7 0 -11 9
-25 17 -31 17 -6 0 -13 5 -15 10 -2 6 -13 12 -25 13 -12 0 -19 5 -17 9 3 4 0
8 -6 8 -6 0 -8 5 -5 10 3 6 1 10 -5 10 -12 0 18 34 32 36 4 1 13 2 19 3 5 0 7
7 3 14 -5 7 -1 7 12 -3 10 -8 16 -11 12 -6 -8 10 9 29 35 39 9 3 17 11 17 16
0 6 7 7 17 4 11 -4 14 -3 9 5 -4 7 -1 12 9 12 9 0 13 4 10 10 -3 6 1 7 9 4 9
-3 16 -1 16 6 0 6 5 8 11 5 6 -4 22 4 36 16 15 13 22 17 18 10 -5 -9 5 -5 22
7 17 12 38 22 47 22 9 0 16 5 16 12 0 6 3 8 7 5 3 -4 12 1 20 11 8 9 12 11 8
5 -4 -8 0 -13 9 -13 8 0 16 6 18 12 3 7 13 13 24 13 10 0 18 5 17 11 -1 7 5
10 16 7 9 -2 23 2 30 11 7 8 20 12 28 9 11 -4 14 -2 9 5 -7 11 11 17 42 13 6
-1 12 3 12 9 0 5 9 10 20 10 11 0 20 5 20 10 0 6 12 10 28 10 47 0 67 3 73 12
3 4 24 9 46 11 23 1 39 5 36 10 -4 7 0 8 47 11 14 0 31 5 39 10 10 7 12 5 7
-5 -6 -10 -4 -10 6 1 9 10 31 15 73 14 33 0 65 3 70 7 18 13 46 14 281 13 158
0 237 -4 246 -12z m-3012 -2344 c0 -6 6 -8 12 -6 15 5 38 -15 38 -34 0 -10 3
-9 10 2 7 11 10 11 10 2 0 -7 4 -11 9 -8 5 3 11 -1 15 -9 3 -8 12 -12 21 -9 9
4 17 -1 21 -11 5 -13 9 -14 15 -3 7 10 9 11 9 0 0 -7 5 -10 10 -7 6 3 10 -1
10 -9 0 -10 6 -13 15 -10 8 4 17 -1 21 -10 3 -9 10 -13 15 -10 5 3 9 0 9 -6 0
-6 5 -8 10 -5 6 3 10 1 10 -4 0 -6 7 -11 16 -11 9 0 22 -6 28 -14 6 -8 20 -16
31 -18 11 -2 26 -9 33 -16 8 -7 17 -10 22 -7 4 3 10 -2 14 -10 3 -8 12 -12 19
-9 8 3 22 -2 31 -11 9 -9 21 -13 27 -9 8 4 9 3 5 -4 -4 -7 -5 -12 -2 -12 2 0
12 -3 22 -7 13 -5 15 -3 9 8 -5 8 3 4 17 -8 13 -13 30 -23 36 -23 7 0 12 -5
12 -12 0 -6 3 -8 7 -5 3 4 14 0 24 -9 10 -9 25 -14 34 -11 9 4 15 1 15 -9 0
-8 4 -13 9 -9 5 3 16 -1 24 -9 8 -8 17 -12 21 -9 3 4 6 2 6 -3 0 -10 88 -40
103 -36 5 1 6 -2 2 -8 -3 -5 -1 -11 4 -11 6 -1 16 -3 21 -4 6 -1 15 -3 21 -4
5 0 8 -5 5 -10 -3 -5 9 -8 28 -7 25 1 32 -2 28 -13 -4 -10 -1 -13 11 -8 12 4
17 1 17 -9 0 -9 6 -14 13 -11 7 3 21 -1 32 -9 10 -8 27 -14 38 -14 10 0 15 -4
12 -10 -3 -6 1 -7 9 -4 9 3 16 1 16 -6 0 -6 4 -8 10 -5 10 6 53 -18 45 -26 -2
-3 6 -6 18 -6 44 -4 67 -14 67 -30 0 -9 3 -14 6 -11 3 4 22 0 41 -8 19 -9 37
-13 40 -10 3 2 13 -4 24 -15 10 -10 25 -16 34 -13 8 4 15 1 15 -5 0 -6 3 -10
8 -9 13 4 52 -13 52 -22 0 -5 7 -6 17 -3 10 4 14 2 10 -4 -4 -6 5 -10 21 -11
31 -1 85 -26 75 -35 -3 -4 8 -7 25 -7 18 0 32 -4 32 -8 0 -5 6 -9 13 -9 13 -1
65 -19 114 -40 17 -7 45 -16 62 -19 17 -4 31 -10 31 -15 0 -5 12 -9 26 -9 14
0 22 -4 19 -10 -4 -6 6 -8 24 -6 23 2 28 0 23 -12 -4 -11 -1 -14 10 -9 9 3 19
0 21 -7 3 -8 18 -13 32 -13 15 0 31 -7 36 -14 7 -12 9 -11 10 1 0 10 4 8 11
-6 6 -14 20 -21 41 -22 17 0 34 -7 39 -15 4 -8 23 -18 43 -21 20 -4 39 -15 46
-27 8 -16 13 -18 25 -8 11 9 14 9 14 0 0 -7 5 -9 10 -6 6 3 10 1 10 -5 0 -6 5
-8 10 -5 6 3 10 1 10 -5 0 -6 4 -9 9 -5 5 3 16 -1 24 -9 11 -11 17 -12 27 -3
10 9 11 9 6 0 -5 -9 0 -13 14 -13 12 0 19 -4 16 -8 -2 -4 7 -9 22 -10 15 -1
29 -7 30 -12 2 -6 15 -10 28 -10 16 0 24 -6 24 -17 0 -14 2 -15 9 -5 7 11 9
11 14 -2 4 -10 18 -16 37 -16 19 0 33 -6 37 -16 3 -8 12 -13 19 -10 8 3 14 1
14 -4 0 -6 9 -10 20 -10 11 0 23 -6 26 -14 3 -8 11 -13 18 -10 7 3 19 -2 26
-11 11 -13 15 -13 21 -3 7 10 9 9 9 -3 0 -20 34 -31 49 -16 7 7 9 4 6 -11 -2
-14 1 -19 10 -16 7 3 16 1 20 -5 3 -6 17 -11 31 -11 14 0 22 -4 19 -10 -3 -5
1 -10 9 -10 9 0 16 -4 16 -10 0 -5 5 -10 11 -10 5 0 7 6 4 13 -4 6 0 4 8 -5 8
-10 17 -15 20 -11 4 3 7 1 7 -6 0 -7 4 -10 9 -7 12 8 52 -29 43 -39 -4 -5 1
-5 11 -2 9 4 17 2 17 -4 0 -6 5 -7 10 -4 6 3 10 1 10 -5 0 -6 4 -9 9 -6 5 3
11 -1 15 -9 3 -8 18 -15 32 -15 15 0 24 -3 21 -6 -12 -13 13 -43 30 -37 11 4
14 3 9 -5 -5 -8 0 -12 13 -12 12 0 21 -4 21 -10 0 -5 7 -10 15 -10 9 0 20 -11
27 -25 6 -13 15 -22 19 -19 5 2 14 -4 21 -16 7 -11 21 -20 31 -20 13 0 17 -5
13 -15 -3 -8 1 -20 8 -27 14 -14 10 -42 -5 -32 -5 3 -9 -1 -9 -8 0 -8 -13 -22
-30 -31 -16 -10 -30 -23 -30 -28 0 -6 -4 -7 -10 -4 -5 3 -20 -4 -33 -17 -13
-13 -35 -29 -50 -37 -15 -8 -27 -18 -27 -23 0 -5 -4 -7 -9 -3 -5 3 -26 -11
-46 -30 -21 -19 -41 -33 -45 -30 -8 5 -24 -24 -22 -37 1 -4 -5 -5 -13 -2 -8 4
-17 -1 -21 -9 -3 -9 -12 -13 -21 -10 -11 4 -14 2 -9 -5 4 -7 -3 -14 -19 -18
-14 -3 -25 -10 -25 -15 0 -5 -11 -9 -25 -9 -14 0 -25 -5 -25 -11 0 -5 -4 -7
-10 -4 -5 3 -10 0 -10 -7 0 -8 -12 -15 -27 -16 -16 -1 -35 -10 -43 -20 -9 -10
-23 -18 -33 -16 -9 1 -15 -2 -11 -7 5 -8 1 -10 -32 -13 -10 -1 -41 -14 -86
-37 -9 -4 -26 -6 -37 -4 -11 2 -24 -1 -27 -7 -5 -7 -2 -8 6 -3 8 5 11 4 6 -3
-4 -6 -13 -9 -20 -6 -8 3 -17 0 -21 -5 -3 -6 -11 -9 -16 -6 -5 4 -9 2 -9 -3 0
-5 -10 -8 -22 -7 -13 1 -29 -3 -37 -9 -11 -8 -13 -8 -7 1 5 9 2 11 -8 7 -9 -3
-14 -9 -11 -13 2 -4 -10 -7 -26 -6 -17 1 -33 -3 -35 -9 -3 -7 -27 -12 -59 -11
-30 0 -55 -4 -55 -9 0 -4 -8 -2 -17 5 -14 12 -16 12 -11 -2 5 -13 0 -15 -27
-12 -19 2 -36 -1 -40 -6 -3 -6 -15 -7 -28 -2 -35 14 -39 13 -48 -1 -5 -7 -9
-8 -9 -3 0 9 -86 13 -115 5 -5 -1 -12 -1 -15 0 -3 1 -21 3 -41 4 -20 2 -42 7
-49 11 -9 5 -11 4 -6 -3 4 -7 2 -12 -3 -12 -6 0 -11 5 -11 11 0 5 -4 7 -10 4
-5 -3 -10 0 -10 7 0 10 -2 10 -9 -1 -6 -9 -11 -10 -15 -2 -5 7 -13 8 -25 1
-10 -5 -21 -6 -25 -3 -3 3 -23 7 -43 8 -62 3 -65 4 -57 18 6 9 5 9 -8 0 -8 -7
-18 -10 -21 -7 -3 3 -26 7 -51 8 -25 1 -49 6 -53 10 -5 5 -2 6 6 1 8 -5 12 -4
8 2 -3 5 -25 9 -49 8 -24 -1 -49 3 -57 9 -11 8 -13 8 -7 -1 4 -7 2 -13 -3 -13
-6 0 -11 5 -11 11 0 5 -4 7 -10 4 -5 -3 -10 -2 -10 3 0 5 -13 8 -30 7 -16 -1
-27 2 -24 7 3 4 2 8 -3 9 -4 0 -23 2 -42 4 -19 2 -37 8 -40 13 -3 5 -14 8 -24
6 -9 -1 -15 1 -12 6 3 4 -2 10 -10 14 -8 3 -15 0 -15 -6 0 -7 -6 -4 -12 5 -7
10 -23 19 -35 21 -12 3 -33 14 -45 26 -12 11 -29 18 -36 15 -9 -3 -12 0 -9 8
3 8 -1 14 -9 14 -7 0 -10 -5 -7 -11 3 -6 -5 -1 -19 12 -13 12 -28 22 -32 22
-4 0 -19 9 -33 20 -14 11 -29 17 -34 14 -5 -3 -9 0 -9 6 0 6 -13 16 -30 21
-16 6 -30 18 -30 26 0 8 -4 11 -10 8 -5 -3 -10 -1 -10 4 0 6 -6 11 -13 11 -7
0 -20 8 -29 18 -36 36 -61 57 -53 42 8 -13 6 -13 -8 -1 -9 7 -14 17 -11 22 3
5 -2 9 -10 9 -9 0 -16 5 -16 11 0 5 -4 7 -10 4 -5 -3 -10 -1 -10 5 0 14 -25
40 -39 40 -6 0 -7 7 -4 17 4 11 3 14 -5 9 -7 -4 -12 -1 -12 8 0 9 -11 18 -24
22 -17 4 -23 11 -21 24 3 13 -1 17 -11 13 -7 -3 -17 2 -20 11 -3 9 -11 13 -17
9 -6 -3 -7 -1 -3 5 4 7 -5 23 -21 38 -15 15 -27 30 -26 35 2 5 -4 9 -13 9 -8
0 -12 5 -9 10 3 6 1 10 -4 10 -6 0 -20 9 -31 20 -11 11 -17 20 -14 20 4 0 1 6
-5 13 -6 8 -9 17 -6 20 3 4 2 5 -1 3 -9 -7 -41 28 -37 40 2 6 -3 14 -12 18 -9
3 -13 10 -10 16 3 5 -1 10 -10 10 -11 0 -15 5 -12 14 3 8 -1 17 -10 20 -9 4
-13 13 -9 21 3 9 -1 18 -9 21 -8 4 -12 10 -9 15 3 5 -2 9 -11 9 -11 0 -15 5
-11 15 3 9 0 15 -9 15 -9 0 -12 6 -9 15 4 10 0 15 -11 15 -11 0 -15 5 -12 14
3 8 -1 20 -8 26 -8 7 -13 16 -10 20 3 5 0 10 -5 12 -6 2 -12 13 -13 26 0 12
-7 22 -15 22 -7 0 -12 8 -10 18 2 11 -2 16 -12 14 -11 -3 -12 -1 -3 8 9 10 7
20 -6 44 -10 17 -17 39 -15 49 1 10 -3 20 -10 23 -7 3 -13 17 -12 32 1 15 -4
33 -11 40 -6 7 -10 21 -8 32 2 12 -2 20 -10 20 -10 0 -13 13 -11 49 1 27 -1
48 -5 45 -10 -6 -19 22 -14 46 2 11 -1 20 -6 20 -6 0 -7 5 -4 10 4 6 2 17 -4
24 -6 7 -9 30 -7 50 3 20 1 36 -3 36 -5 0 -12 7 -15 16 -3 8 -2 12 4 9 14 -9
12 9 -2 23 -7 7 -9 12 -5 12 4 0 3 8 -2 19 -6 10 -7 21 -3 25 10 11 9 169 -1
184 -6 8 -6 12 2 12 7 0 8 8 1 25 -7 18 -6 25 3 25 8 0 7 4 -3 10 -11 7 -11
10 -2 10 7 0 10 5 7 10 -4 6 -9 8 -13 6 -4 -2 -6 21 -6 52 1 32 6 58 13 60 6
2 9 8 5 13 -3 5 6 4 20 -3 14 -6 26 -15 26 -20z m3560 -5472 c0 -3 -4 -8 -10
-11 -5 -3 -10 -1 -10 4 0 6 5 11 10 11 6 0 10 -2 10 -4z m-1405 -114 c-3 -3
-11 0 -18 7 -9 10 -8 11 6 5 10 -3 15 -9 12 -12z"/>
</g>
</svg>
